<svg width="69" height="48" viewBox="0 0 69 48" fill="none" xmlns="http://www.w3.org/2000/svg">
<path d="M68.9322 10.3395C68.6843 9.13576 67.1971 8.4479 65.9352 8.87781C62.1945 10.1676 58.4312 11.4573 54.5328 12.2741C52.5723 12.6826 48.2007 13.5209 43.3332 12.7041C42.1164 12.4891 40.6967 13.0265 40.4038 14.2947C40.1334 15.4125 40.7643 16.8527 42.0713 17.0892C44.6853 17.5621 47.2767 17.6481 49.8457 17.4546C49.8006 17.4976 47.8626 18.7444 45.9247 23.151C44.8205 25.6445 44.4149 28.3529 44.1445 31.0399C44.0318 32.2222 45.3163 33.3615 46.5331 33.3185C47.9302 33.254 48.7865 32.3082 48.9218 31.0399C49.0344 29.8147 49.1922 28.9333 49.4851 27.6221C50.0485 25.1501 51.0625 23.28 51.2203 23.0005C51.6484 22.2697 52.1667 21.5818 52.7977 21.0014C54.1497 19.7976 54.9384 20.2061 55.1863 20.3565C56.2679 21.0229 57.3947 23.8388 58.0031 25.9884C58.3636 27.2567 58.8368 28.5034 59.1974 29.7717C59.5129 30.9324 60.91 31.7278 62.1269 31.3623C63.3662 30.9754 64.1324 29.7932 63.7944 28.5679C63.1409 26.2034 62.3297 23.9033 61.3382 21.6463C60.4142 19.5827 59.4002 17.3901 57.3045 16.2508C60.6621 15.4555 63.5014 14.7461 66.5436 13.4134C67.6703 12.8975 69.2252 11.6293 68.9322 10.3395Z" fill="#1B552A"/>
<path fill-rule="evenodd" clip-rule="evenodd" d="M0 32.8456V13.6499C0 13.0265 0.225343 12.4891 0.676029 12.0592C1.12672 11.6293 1.66754 11.4143 2.32104 11.4143H4.57447V19.3892H13.6783V11.4143H18.2979V32.8456H13.6783V23.3229H4.55193V32.8456H0Z" fill="#DA2128"/>
<path fill-rule="evenodd" clip-rule="evenodd" d="M20.5513 32.8456V13.6499C20.5513 13.0265 20.7766 12.4891 21.2273 12.0592C21.678 11.6293 22.2413 11.4143 22.8948 11.4143H28.5735C31.9987 11.4143 34.5676 12.2956 36.2802 14.0368C37.9703 15.8639 38.8266 18.5724 38.8266 22.1407C38.8266 24.0538 38.5111 25.7735 37.9027 27.3211C37.2041 28.8903 36.3027 30.1156 35.1535 30.9324C34.1845 31.6418 33.1705 32.1362 32.0888 32.4371C31.0523 32.7166 29.4523 32.867 27.3116 32.867H20.5513V32.8456ZM25.0581 28.9763H28.0101C30.1509 28.9763 31.7057 28.4389 32.7198 27.3641C33.6662 26.3753 34.162 24.6342 34.162 22.1407C34.162 19.7332 33.7113 17.9705 32.7874 16.8527C31.9311 15.7349 30.534 15.1761 28.6185 15.1761H25.0581V28.9763Z" fill="#DA2128"/>
<path d="M52.4374 9.93103C55.3122 9.93103 57.6428 7.70789 57.6428 4.96552C57.6428 2.22314 55.3122 0 52.4374 0C49.5625 0 47.2319 2.22314 47.2319 4.96552C47.2319 7.70789 49.5625 9.93103 52.4374 9.93103Z" fill="url(#paint0_radial)"/>
<path fill-rule="evenodd" clip-rule="evenodd" d="M0 38.3269V47.8495H2.45624V37.1661H1.14925C0.743633 37.1661 0 37.4671 0 38.3269Z" fill="#1B552A"/>
<path fill-rule="evenodd" clip-rule="evenodd" d="M18.5906 43.0558C17.9371 42.7979 17.0583 42.5399 16.247 42.3249C15.0076 42.0025 14.5119 41.852 14.4443 41.4436C14.3316 40.7558 15.3231 40.6483 15.7964 40.6483C17.8019 40.6483 17.6442 41.7661 18.0949 41.7661H19.7173C19.7173 40.2184 18.523 39.5305 18.2751 39.4015C17.5991 39.0361 16.7653 38.8641 15.7738 38.8641C14.6696 38.8641 13.7683 39.1221 13.0697 39.6165C12.3937 40.1754 12.0557 40.8632 12.0557 41.7016C12.0557 43.5932 13.9711 44.0231 15.2105 44.3026C16.7653 44.6465 17.5991 44.8399 17.5991 45.3988C17.5991 45.6568 17.4639 45.8717 17.1935 46.0222C16.9005 46.1727 16.54 46.2587 16.1118 46.2587C15.5259 46.2587 15.0753 46.1512 14.7372 45.9362C14.4218 45.7213 14.2415 45.3773 14.2189 44.9474H11.8754C11.8754 44.9474 11.7176 46.3017 12.8894 47.2475C13.5204 47.7634 14.5119 47.9998 15.8189 47.9998C17.1935 47.9998 18.2301 47.7634 18.9286 47.269C19.6722 46.7316 20.0328 46.0007 20.0328 45.0334V45.0119C20.0103 44.1521 19.4244 43.3782 18.5906 43.0558Z" fill="#1B552A"/>
<path fill-rule="evenodd" clip-rule="evenodd" d="M26.3204 40.197V44.6681C26.3204 45.2055 26.1627 45.5709 25.8472 45.8289C25.5317 46.0653 25.1487 46.1943 24.6754 46.1943C24.2022 46.1943 23.8191 46.0653 23.5037 45.8289C23.1882 45.5924 23.0304 45.2055 23.0304 44.6681V39.0577H20.6193V44.6896C20.6193 46.2158 21.5882 48 24.698 48C27.8077 48 28.7767 46.1943 28.7767 44.6896V39.0577H27.5598C26.8613 39.0577 26.3204 39.5736 26.3204 40.197Z" fill="#1B552A"/>
<path fill-rule="evenodd" clip-rule="evenodd" d="M30.8269 40.025C30.3762 40.412 29.3396 41.3363 29.3396 43.5933V47.8495H31.7508V43.5503C31.7508 41.2503 34.5225 41.4223 34.5225 41.4223V39.0792C34.545 39.0577 32.0663 38.9502 30.8269 40.025Z" fill="#1B552A"/>
<path fill-rule="evenodd" clip-rule="evenodd" d="M57.9129 45.2915C57.7777 45.399 57.1693 46.0868 56.2454 46.0868C55.637 46.0868 55.1863 45.9149 54.8934 45.5495C54.4877 45.141 54.2624 44.4102 54.2624 43.3999C54.2624 41.2503 55.4342 40.8419 56.0201 40.7559C57.0792 40.6269 57.6651 41.2718 57.7552 41.7017H60.2114C60.2114 41.0998 59.558 38.8213 56.0877 38.8213C54.7807 38.8213 53.7441 39.2297 53.0005 40.0465C52.2794 40.8419 51.9188 41.9382 51.9188 43.3354C51.9188 44.8186 52.2794 45.9364 53.023 46.7317C53.7666 47.5486 54.7807 47.957 56.1102 47.957C57.1918 47.957 58.0932 47.699 58.8143 47.2046C59.5354 46.7317 60.0086 46.0224 60.2565 45.098H58.5214C58.2735 45.141 58.0707 45.184 57.9129 45.2915Z" fill="#1B552A"/>
<path fill-rule="evenodd" clip-rule="evenodd" d="M69.0001 43.4427C69.0001 41.981 68.6395 40.8632 67.8959 40.0464C67.1297 39.2511 66.0706 38.8641 64.6735 38.8641C63.3665 38.8641 62.3299 39.2726 61.5863 40.0894C60.8652 40.8847 60.5046 41.981 60.5046 43.3782C60.5046 44.8614 60.8652 45.9792 61.6088 46.7746C62.3525 47.5914 63.3665 47.9998 64.696 47.9998C65.7777 47.9998 66.679 47.7419 67.4001 47.2475C68.1212 46.7746 68.5945 46.0652 68.8423 45.1409H67.1072C66.8368 45.1409 66.6114 45.2054 66.4762 45.3129C66.3185 45.4203 65.7551 46.1082 64.8312 46.1082C64.2228 46.1082 63.7721 45.9362 63.4792 45.5708C63.1637 45.2484 62.9834 44.7325 62.9609 44.0446H68.955C68.955 44.0446 69.0001 43.5502 69.0001 43.4427ZM62.9834 42.5614C63.0059 41.981 63.1862 41.5511 63.5017 41.2502C63.8172 40.9492 64.2453 40.7988 64.7411 40.7988C65.3044 40.7988 65.7101 40.9492 66.0255 41.2502C66.296 41.5296 66.4537 41.981 66.4988 42.5614H62.9834Z" fill="#1B552A"/>
<path fill-rule="evenodd" clip-rule="evenodd" d="M7.34617 38.8641C4.23643 38.8641 3.26746 40.6913 3.26746 42.2175V47.8493H5.67863V42.239C5.67863 41.7016 5.83637 41.3361 6.15185 41.0782C6.46733 40.8417 6.85041 40.7128 7.32363 40.7128C7.79685 40.7128 8.17994 40.8417 8.49542 41.0782C8.8109 41.3146 8.96864 41.7016 8.96864 42.239V46.7101C8.96864 47.3335 9.50946 47.8493 10.163 47.8493H11.3798V42.2175C11.4249 40.6913 10.4334 38.8641 7.34617 38.8641Z" fill="#1B552A"/>
<path fill-rule="evenodd" clip-rule="evenodd" d="M47.412 38.8641C44.3022 38.8641 43.3333 40.6913 43.3333 42.2175V47.8493H45.7444V42.239C45.7444 41.7016 45.9022 41.3361 46.2176 41.0782C46.5331 40.8417 46.9162 40.7128 47.3894 40.7128C47.8626 40.7128 48.2457 40.8417 48.5612 41.0782C48.8767 41.3146 49.0344 41.7016 49.0344 42.239V46.7101C49.0344 47.3335 49.5753 47.8493 50.2287 47.8493H51.4456V42.2175C51.4907 40.6913 50.5217 38.8641 47.412 38.8641Z" fill="#1B552A"/>
<path fill-rule="evenodd" clip-rule="evenodd" d="M41.5984 39.4875C40.9223 39.0791 39.9083 38.8641 38.5788 38.8641C37.3844 38.8641 36.4605 39.1221 35.807 39.595C35.2437 40.0249 34.8606 40.6053 34.7705 41.4221H37.2042C37.2943 40.3688 40.2914 40.3688 40.2688 41.4221C40.2688 41.852 39.728 42.1315 38.6914 42.2605C34.9507 42.6689 34.5677 43.9371 34.5451 45.2914C34.5226 46.2587 34.8606 46.968 35.5141 47.3764C36.1676 47.7849 36.9338 47.9998 37.7901 47.9998C38.8041 47.9998 39.5252 47.7204 40.359 47.2045C40.5843 47.7204 40.9899 47.8494 41.328 47.8494H42.6349V41.2932C42.6575 40.5193 42.2969 39.9174 41.5984 39.4875ZM40.3139 44.3241C40.3139 44.9259 40.1336 45.3988 39.728 45.7428C39.3449 46.0867 38.8266 46.2587 38.1506 46.2587C37.745 46.2587 37.4295 46.1727 37.2042 46.0007C37.0014 45.8073 36.8887 45.5708 36.8887 45.2269C36.8887 44.9904 36.9563 44.3241 38.083 44.1091L38.9168 43.9371C39.5252 43.8081 39.9759 43.6792 40.3364 43.5287V44.3241H40.3139Z" fill="#1B552A"/>
<defs>
<radialGradient id="paint0_radial" cx="0" cy="0" r="1" gradientUnits="userSpaceOnUse" gradientTransform="translate(51.1638 3.94052) scale(6.09667 5.81569)">
<stop stop-color="#F2E3C5"/>
<stop offset="0.0999043" stop-color="#F0DFBC"/>
<stop offset="0.2629" stop-color="#E8D3A5"/>
<stop offset="0.4673" stop-color="#DCC081"/>
<stop offset="0.6" stop-color="#D3B369"/>
<stop offset="1" stop-color="#BB8A0B"/>
</radialGradient>
</defs>
</svg>
