<svg width="31" height="40" viewBox="0 0 31 40" fill="none" xmlns="http://www.w3.org/2000/svg">
<path d="M30.1535 30.9472L24.479 23.9591C24.2064 24.3516 23.816 24.6474 23.3644 24.8036L21.5988 25.4182L20.3545 26.8105C20.1504 27.0385 19.9023 27.2229 19.625 27.3525V32.8536L22.8758 36.8569C22.9765 36.981 23.1073 37.0772 23.2557 37.1365C23.4041 37.1958 23.5652 37.2162 23.7236 37.1957C23.8821 37.1752 24.0327 37.1146 24.1612 37.0195C24.2897 36.9245 24.3917 36.7982 24.4576 36.6526L25.9935 33.2602L29.6289 32.4531C29.7849 32.4185 29.9294 32.3445 30.0488 32.2383C30.1682 32.1321 30.2585 31.9972 30.3111 31.8463C30.3636 31.6953 30.3768 31.5335 30.3492 31.3761C30.3216 31.2187 30.2543 31.071 30.1535 30.9469V30.9472Z" fill="white"/>
<path d="M18.667 27.5668C18.6227 27.5668 18.5783 27.5655 18.5337 27.5629L16.6678 27.4565L14.984 28.2679C14.6772 28.4163 14.3407 28.4934 13.9999 28.4934C13.6591 28.4934 13.3227 28.4163 13.0159 28.2679L11.3318 27.4566L9.46461 27.563C9.42117 27.5655 9.37719 27.5668 9.33328 27.5668C9.32633 27.5668 9.31945 27.5663 9.3125 27.5662V38.75C9.3125 38.9098 9.35335 39.0669 9.43117 39.2065C9.50899 39.3461 9.6212 39.4635 9.75714 39.5475C9.89308 39.6315 10.0482 39.6793 10.2079 39.6865C10.3675 39.6937 10.5264 39.66 10.6693 39.5885L13.9996 37.9232L17.3303 39.5885C17.4732 39.66 17.6321 39.6937 17.7917 39.6865C17.9514 39.6793 18.1065 39.6315 18.2425 39.5475C18.3784 39.4635 18.4906 39.3461 18.5684 39.2065C18.6463 39.0669 18.6871 38.9098 18.6871 38.75V27.5662C18.6804 27.5662 18.6737 27.5668 18.6671 27.5668H18.667Z" fill="white"/>
<path d="M21.0615 24.6126L23.056 23.9183C23.2451 23.853 23.417 23.7456 23.5586 23.6042C23.7002 23.4628 23.8078 23.2911 23.8734 23.1021L24.5687 21.1123L26.1448 19.7093C26.2947 19.5766 26.4124 19.4115 26.4892 19.2266C26.5659 19.0416 26.5995 18.8416 26.5876 18.6418L26.4672 16.5381L27.3853 14.6406C27.473 14.4605 27.5186 14.2628 27.5186 14.0625C27.5186 13.8621 27.473 13.6644 27.3853 13.4843L26.4674 11.5868L26.5878 9.48294C26.5997 9.28308 26.566 9.08312 26.4893 8.89818C26.4125 8.71325 26.2948 8.54817 26.1449 8.41544L24.5689 7.01263L23.8735 5.02294C23.808 4.83387 23.7003 4.66215 23.5588 4.52074C23.4172 4.37933 23.2453 4.27192 23.0561 4.20661L21.0616 3.51232L19.6554 1.93904C19.5225 1.78964 19.3574 1.67232 19.1726 1.59592C18.9879 1.51952 18.7882 1.48602 18.5886 1.49794L16.4792 1.61818L14.5772 0.701615C14.3973 0.614391 14.2 0.569077 14 0.569077C13.8001 0.569077 13.6028 0.614391 13.4229 0.701615L11.5204 1.61818L9.41104 1.49794C9.21143 1.48603 9.01172 1.51956 8.82694 1.59599C8.64216 1.67242 8.47712 1.78976 8.34424 1.93919L6.938 3.51232L4.94348 4.20669C4.75442 4.27204 4.58266 4.37947 4.44116 4.52086C4.29965 4.66226 4.1921 4.83393 4.12661 5.02294L3.4313 7.01271L1.85505 8.4156C1.70516 8.54835 1.5874 8.71344 1.51069 8.89839C1.43398 9.08334 1.40031 9.28331 1.41224 9.48318L1.53263 11.5868L0.614746 13.4843C0.52703 13.6644 0.481445 13.8621 0.481445 14.0625C0.481445 14.2628 0.52703 14.4605 0.614746 14.6406L1.53263 16.5382L1.41224 18.642C1.40033 18.8419 1.43401 19.0418 1.51074 19.2268C1.58746 19.4117 1.70523 19.5768 1.85513 19.7095L3.43114 21.1124L4.12645 23.1021C4.19201 23.2912 4.29965 23.4629 4.44125 23.6043C4.58285 23.7457 4.75471 23.8531 4.94387 23.9184L6.93839 24.6127L8.34463 26.186C8.47753 26.3354 8.64258 26.4527 8.82735 26.5291C9.01213 26.6055 9.21183 26.639 9.41143 26.6271L11.5208 26.5068L13.4232 27.4234C13.6031 27.5107 13.8004 27.556 14.0003 27.556C14.2003 27.556 14.3976 27.5107 14.5775 27.4234L16.48 26.5068L18.5894 26.6271C18.789 26.6391 18.9887 26.6056 19.1735 26.5292C19.3583 26.4528 19.5233 26.3354 19.6561 26.1858L21.0615 24.6126ZM14 23.125C12.2076 23.125 10.4555 22.5935 8.96517 21.5977C7.47485 20.6019 6.31329 19.1865 5.62738 17.5305C4.94146 15.8746 4.762 14.0524 5.11167 12.2945C5.46135 10.5365 6.32446 8.92173 7.59187 7.65432C8.85928 6.38691 10.4741 5.52379 12.232 5.17411C13.9899 4.82443 15.8121 5.0039 17.4681 5.68982C19.124 6.37573 20.5394 7.5373 21.5352 9.02762C22.531 10.5179 23.0625 12.2701 23.0625 14.0625C23.0597 16.4652 22.1041 18.7687 20.4051 20.4676C18.7062 22.1666 16.4027 23.1222 14 23.125Z" fill="white"/>
<path d="M14 6.87498C12.5785 6.87498 11.1888 7.29652 10.0068 8.0863C8.82486 8.87607 7.90362 9.9986 7.35962 11.3119C6.81561 12.6253 6.67328 14.0705 6.95061 15.4647C7.22794 16.8589 7.91248 18.1396 8.91767 19.1448C9.92286 20.15 11.2036 20.8345 12.5978 21.1119C13.992 21.3892 15.4372 21.2469 16.7505 20.7029C18.0639 20.1589 19.1864 19.2376 19.9762 18.0556C20.766 16.8737 21.1875 15.484 21.1875 14.0625C21.1854 12.1569 20.4275 10.3299 19.0801 8.98244C17.7326 7.63497 15.9056 6.87705 14 6.87498ZM16.1875 17.8125H12.4375C12.1889 17.8125 11.9504 17.7137 11.7746 17.5379C11.5988 17.3621 11.5 17.1236 11.5 16.875C11.5 16.6263 11.5988 16.3879 11.7746 16.2121C11.9504 16.0363 12.1889 15.9375 12.4375 15.9375H13.375V12.2633L12.4754 13.1629C12.2991 13.3363 12.0614 13.4331 11.8141 13.4321C11.5668 13.4311 11.3299 13.3324 11.155 13.1575C10.9801 12.9826 10.8814 12.7457 10.8804 12.4984C10.8794 12.2511 10.9762 12.0134 11.1496 11.8371L13.6496 9.33709C13.7807 9.20599 13.9478 9.11671 14.1296 9.08054C14.3115 9.04437 14.5 9.06294 14.6713 9.13389C14.8426 9.20484 14.989 9.325 15.092 9.47916C15.195 9.63332 15.25 9.81457 15.25 9.99998V15.9375H16.1875C16.4361 15.9375 16.6746 16.0363 16.8504 16.2121C17.0262 16.3879 17.125 16.6263 17.125 16.875C17.125 17.1236 17.0262 17.3621 16.8504 17.5379C16.6746 17.7137 16.4361 17.8125 16.1875 17.8125Z" fill="white"/>
</svg>
