<svg width="40" height="40" viewBox="0 0 40 40" fill="none" xmlns="http://www.w3.org/2000/svg">
<path d="M39.3531 22.9092L37.8318 20.6635C37.5584 20.2607 37.5584 19.7397 37.8318 19.3359L39.3539 17.0894C40.7395 15.0405 39.8018 12.2959 37.4373 11.4279L34.833 10.4696C34.3649 10.2974 34.0455 9.87551 34.0197 9.39521L33.8764 6.72007C33.7466 4.28767 31.3162 2.58847 28.8608 3.21955L26.168 3.91525C25.6858 4.03978 25.1672 3.87955 24.8531 3.50518L23.0993 1.4216C21.5031 -0.47565 18.491 -0.472525 16.8997 1.42293L15.1459 3.50533C14.8318 3.87978 14.3141 4.0408 13.8319 3.91541L11.1391 3.22018C8.6904 2.58667 6.25273 4.2847 6.12267 6.72023L5.97936 9.39583C5.95374 9.87606 5.63514 10.2976 5.16705 10.4697L2.56281 11.4273C0.195335 12.2981 -0.739306 15.0439 0.646998 17.0913L2.16718 19.3351C2.44064 19.7389 2.44064 20.2607 2.16808 20.6636L0.646998 22.9092C-0.738655 24.952 0.193871 27.7029 2.56281 28.5724L5.16705 29.5303C5.63514 29.7028 5.95374 30.1243 5.97936 30.6046L6.12267 33.2802C6.25249 35.7123 8.68495 37.4125 11.1391 36.7803L13.8319 36.0842C14.3133 35.9601 14.83 36.1199 15.1468 36.4956L16.8998 38.578C18.4928 40.4714 21.5001 40.4763 23.1003 38.5789L24.8532 36.4956C25.1692 36.12 25.6851 35.9609 26.1673 36.0842L28.8627 36.7812C31.3069 37.4104 33.7464 35.7191 33.8764 33.2802L34.0197 30.6054C34.0454 30.1244 34.3648 29.7028 34.833 29.5302L37.4373 28.5732C39.804 27.7027 40.7395 24.9566 39.3531 22.9092ZM14.5026 12.9648C16.0016 12.9648 17.2209 14.136 17.2209 15.5758C17.2209 17.0156 16.0015 18.1868 14.5026 18.1868C13.0035 18.1868 11.7842 17.0155 11.7842 15.5758C11.7842 14.136 13.0036 12.9648 14.5026 12.9648ZM24.47 27.7606C22.9709 27.7606 21.7516 26.5894 21.7516 25.1496C21.7516 23.7098 22.971 22.5386 24.47 22.5386C25.969 22.5386 27.1883 23.7099 27.1883 25.1496C27.1884 26.5894 25.969 27.7606 24.47 27.7606ZM26.7903 15.1934L14.1044 27.3781C13.5735 27.8881 12.7134 27.8881 12.1824 27.3781C11.6515 26.8682 11.6515 26.0419 12.1824 25.532L24.8682 13.3473C25.3991 12.8374 26.2593 12.8374 26.7902 13.3473C27.3212 13.8572 27.3212 14.6834 26.7903 15.1934Z" fill="white"/>
</svg>
