<svg width="40" height="40" viewBox="0 0 40 40" fill="none" xmlns="http://www.w3.org/2000/svg">
<path d="M23.8602 19.7906C29.3164 19.7906 33.7547 15.3516 33.7547 9.89531C33.7547 4.43906 29.3164 0 23.8602 0C18.4039 0 13.9648 4.43906 13.9648 9.89531C13.9648 15.3516 18.4039 19.7906 23.8602 19.7906ZM22.6883 4.07891V3.81016C22.6883 3.1625 23.2125 2.63828 23.8602 2.63828C24.507 2.63828 25.032 3.1625 25.032 3.81016V4.08047C26.4266 4.37969 27.4758 5.62188 27.4758 7.10469C27.4758 7.75156 26.9508 8.27656 26.3039 8.27656C25.6562 8.27656 25.132 7.75156 25.132 7.10469C25.132 6.69141 24.7953 6.35469 24.382 6.35469H23.3313C22.918 6.35469 22.5813 6.69141 22.5813 7.10469C22.5813 7.34141 22.6945 7.56641 22.8852 7.70703L23.8602 8.42891L26.2289 10.182C27.007 10.7578 27.4758 11.6789 27.482 12.6477V12.6586C27.4875 13.4852 27.1711 14.2648 26.5898 14.8531C26.1586 15.2898 25.6195 15.5828 25.032 15.7063V15.9805C25.032 16.6281 24.507 17.1523 23.8602 17.1523C23.2125 17.1523 22.6883 16.6281 22.6883 15.9805V15.7102C22.1164 15.5883 21.5906 15.307 21.1656 14.8867C20.5773 14.3063 20.2508 13.5313 20.2461 12.7047C20.2422 12.0578 20.7633 11.5297 21.4102 11.5258H21.418C22.0617 11.5258 22.5859 12.0461 22.5898 12.6906C22.5914 13.0951 22.9168 13.4359 23.3438 13.4359C23.9913 13.432 23.7501 13.4334 24.393 13.4297C24.8089 13.4264 25.1415 13.0888 25.1383 12.6742V12.6633C25.1367 12.4289 25.0234 12.2055 24.8344 12.0656L23.8602 11.3445L21.4906 9.59141C20.7063 9.01016 20.2375 8.08047 20.2375 7.10469C20.2375 5.61875 21.2898 4.37578 22.6883 4.07891Z" fill="white"/>
<path d="M7.82733 25.4212C7.52694 24.9004 6.85967 24.7192 6.33569 25.0215L0.823345 28.2035C0.301392 28.5056 0.122329 29.1732 0.423657 29.6959L6.05756 39.4538C6.35913 39.9756 7.02631 40.1549 7.5492 39.8535L13.0615 36.6707C13.5843 36.3693 13.7626 35.7017 13.4612 35.1791L7.82733 25.4212Z" fill="white"/>
<path d="M39.4129 23.4734C38.8824 22.7367 37.8559 22.5703 37.1199 23.1008C34.8871 24.7094 30.5996 27.7984 30.259 28.0445C30.102 28.1781 29.9371 28.2992 29.7652 28.4062C29.091 28.8304 28.309 29.057 27.4926 29.057H21.8793C21.2324 29.057 20.7074 28.5328 20.7074 27.8851C20.7074 27.2367 21.2332 26.7133 21.8793 26.7133H27.8824C28.7645 26.7133 29.4707 25.9789 29.434 25.0953C29.3996 24.257 28.684 23.607 27.8449 23.607H23.2754C22.966 23.2797 22.627 22.9797 22.2637 22.7117C21.0145 21.7906 19.4707 21.2461 17.7996 21.2461C14.8285 21.2461 11.8723 23.1179 10.6465 25.6164L15.4402 33.9187H24.4324C26.198 33.9187 27.9371 33.4672 29.4676 32.5867C29.998 32.282 30.566 31.9156 31.1816 31.4734C33.7613 29.6203 39.0355 25.7703 39.0394 25.7679C39.7769 25.2383 39.9441 24.2101 39.4129 23.4734Z" fill="white"/>
</svg>
