<svg width="40" height="40" viewBox="0 0 40 40" fill="none" xmlns="http://www.w3.org/2000/svg">
<path d="M38.4483 18.9809L21.3318 1.86435C20.1474 0.68003 18.5086 0 16.8324 0H3.6364C1.63177 0 0 1.63083 0 3.6364V16.8316C0 18.5299 0.662303 20.1289 1.86435 21.3318L18.9808 38.4483C19.9823 39.4488 21.314 40.0001 22.7273 40.0001C24.1406 40.0001 25.4723 39.4487 26.4737 38.4483L38.4482 26.4738C39.4496 25.4742 40 24.1433 40 22.7274C40 21.3114 39.4497 19.9805 38.4483 18.9809ZM9.84386 11.1298L7.9155 13.0585C7.73798 13.236 7.50531 13.3248 7.27272 13.3248C7.04013 13.3248 6.80755 13.236 6.62993 13.0585C6.27479 12.7033 6.27479 12.128 6.62993 11.773L9.20005 9.20244C9.20005 9.20244 9.20048 9.20159 9.20091 9.20108C9.20133 9.20065 9.20176 9.20065 9.20176 9.20065L11.7719 6.6301C12.1128 6.28919 12.7165 6.28919 13.0574 6.6301L15.6284 9.20116C15.9836 9.55631 15.9836 10.1316 15.6284 10.4866C15.2733 10.8418 14.698 10.8418 14.3429 10.4866L12.4147 8.55838L11.1292 9.84412L12.4147 11.1303C12.7698 11.4854 12.7698 12.0607 12.4147 12.4158C12.2371 12.5933 12.0045 12.6821 11.7719 12.6821C11.5393 12.6821 11.3067 12.5933 11.1291 12.4158L9.84386 11.1298ZM14.9858 21.0388C14.7532 21.0388 14.5206 20.9499 14.343 20.7724C13.9879 20.4173 13.9879 19.8411 14.343 19.4869L15.6303 18.2005C15.9837 17.8463 15.9837 17.2692 15.6303 16.9141L14.9857 16.2722L13.0575 18.2005C12.7023 18.5557 12.127 18.5557 11.772 18.2005C11.4168 17.8454 11.4168 17.2701 11.772 16.915L14.3199 14.3688C14.327 14.36 14.3342 14.352 14.343 14.344C14.3501 14.336 14.359 14.3279 14.3679 14.32L16.9159 11.773C17.271 11.4178 17.8463 11.4178 18.2014 11.773L19.4868 13.0585C20.5504 14.122 20.5504 15.8515 19.4868 16.915C19.0074 17.3944 18.3807 17.6741 17.7077 17.7096C17.6722 18.3568 17.4076 18.9934 16.9158 19.4861L15.6285 20.7725C15.4511 20.9499 15.2184 21.0388 14.9858 21.0388ZM20.7724 24.629C21.1276 24.9841 21.1276 25.5594 20.7724 25.9145C20.5949 26.092 20.3622 26.1808 20.1296 26.1808C19.897 26.1808 19.6645 26.092 19.4868 25.9145L16.9158 23.3434C16.5606 22.9882 16.5606 22.413 16.9158 22.0579L22.0578 16.9149C22.2283 16.7445 22.4591 16.6486 22.7006 16.6486C22.9421 16.6486 23.1729 16.7445 23.3434 16.9149L25.9144 19.4868C26.2696 19.842 26.2696 20.4173 25.9144 20.7723C25.5593 21.1275 24.984 21.1275 24.629 20.7723L22.7007 18.8432L21.4149 20.1293L22.7007 21.4151C23.0558 21.7703 23.0558 22.3455 22.7007 22.7006C22.5232 22.8781 22.2905 22.9669 22.0579 22.9669C21.8253 22.9669 21.5927 22.8781 21.4151 22.7006L20.1295 21.4149L18.8441 22.7006L20.7724 24.629ZM31.0566 25.9145C30.7014 26.2696 30.1261 26.2696 29.7711 25.9145L27.8428 23.9862L26.5573 25.2717L27.8428 26.5571C28.1979 26.9123 28.1979 27.4876 27.8428 27.8426C27.6653 28.0202 27.4326 28.109 27.2 28.109C26.9674 28.109 26.7348 28.0202 26.5572 27.8426L25.2717 26.5571L23.9863 27.8426L25.9145 29.7718C26.2697 30.1269 26.2697 30.7022 25.9145 31.0572C25.737 31.2348 25.5043 31.3236 25.2717 31.3236C25.0392 31.3236 24.8066 31.2348 24.629 31.0572L22.0579 28.4853C21.7028 28.1302 21.7028 27.5549 22.0579 27.1999L27.1999 22.0578C27.5551 21.7027 28.1304 21.7027 28.4854 22.0578L31.0565 24.6289C31.4117 24.9841 31.4117 25.5594 31.0566 25.9145Z" fill="white"/>
<path d="M17.5571 15.8958H17.5589C17.8022 15.8958 18.0295 15.8008 18.2017 15.6294C18.5569 15.2752 18.5569 14.6982 18.2017 14.344L17.5589 13.7012L16.2734 14.9867L16.9162 15.6285C17.0884 15.8017 17.3157 15.8958 17.5571 15.8958Z" fill="white"/>
</svg>
