<svg width="213" height="156" viewBox="0 0 213 156" fill="none" xmlns="http://www.w3.org/2000/svg">
<path d="M212.833 33.4226C212.047 29.5142 207.456 27.2819 203.574 28.6728C192.019 32.8245 180.415 36.9833 168.408 39.6259C162.349 40.9612 148.887 43.6943 133.847 41.0168C130.069 40.3422 125.729 42.06 124.796 46.1561C123.975 49.7724 125.889 54.4457 129.937 55.2038C138.014 56.7129 146 56.998 153.903 56.4208C153.743 56.5529 147.774 60.5795 141.785 74.8499C138.404 82.9101 137.117 91.7074 136.303 100.373C135.941 104.211 139.948 107.897 143.663 107.73C147.955 107.536 150.633 104.49 151.023 100.373C151.392 96.4364 151.823 93.5642 152.769 89.3012C154.536 81.3036 157.66 75.2533 158.161 74.384C159.496 72.0334 161.055 69.7941 163.037 67.9303C167.197 64.022 169.653 65.3572 170.425 65.8579C173.757 68.0277 177.215 77.124 179.128 84.0784C180.255 88.1885 181.737 92.1873 182.815 96.3112C183.789 100.032 188.116 102.661 191.866 101.451C195.699 100.213 198.05 96.3947 197.007 92.4028C195.003 84.753 192.471 77.2979 189.396 70.0166C186.565 63.3057 183.406 56.24 176.916 52.575C187.26 49.988 196.082 47.7069 205.459 43.3744C208.931 41.7609 213.682 37.637 212.833 33.4226Z" fill="white"/>
<path fill-rule="evenodd" clip-rule="evenodd" d="M0 106.263V44.1882C0 42.1714 0.695669 40.4606 2.07309 39.0489C3.45748 37.6441 5.15491 36.9347 7.13061 36.9347H14.0595V62.7355H42.1854V36.9278H56.4466V106.263H42.1854V75.4203H14.0664V106.263H0Z" fill="#DA2128"/>
<path fill-rule="evenodd" clip-rule="evenodd" d="M63.4512 106.263V44.1885C63.4512 42.1717 64.1608 40.461 65.566 39.0492C66.9782 37.6444 68.6965 36.9351 70.707 36.9351H88.2587C98.8677 36.9351 106.798 39.7586 112.03 45.3986C117.275 51.3098 119.891 60.0445 119.891 71.5958C119.891 77.7783 118.945 83.3696 117.066 88.3211C114.917 93.4326 112.099 97.334 108.607 100.018C105.644 102.306 102.485 103.913 99.1251 104.859C95.8972 105.798 90.9927 106.27 84.4117 106.27H63.4512V106.263ZM77.3646 93.7595H86.45C93.031 93.7595 97.8729 92.0209 100.962 88.5228C103.918 85.296 105.4 79.6629 105.4 71.5888C105.4 63.8069 103.981 58.0904 101.156 54.4671C98.4781 50.83 94.1719 49.0218 88.2727 49.0218H77.3646V93.7595Z" fill="#DA2128"/>
<path d="M161.896 32.0737C170.755 32.0737 177.938 24.8937 177.938 16.0368C177.938 7.17994 170.755 0 161.896 0C153.036 0 145.854 7.17994 145.854 16.0368C145.854 24.8937 153.036 32.0737 161.896 32.0737Z" fill="url(#paint0_radial)"/>
<path fill-rule="evenodd" clip-rule="evenodd" d="M0 123.983V154.777H7.58279V120.214H3.56183C2.31658 120.214 0 121.25 0 123.983Z" fill="white"/>
<path fill-rule="evenodd" clip-rule="evenodd" d="M57.3654 139.29C55.3827 138.462 52.6557 137.635 50.1374 136.953C46.2973 135.917 44.7738 135.395 44.5859 134.074C44.2659 131.821 47.3269 131.515 48.753 131.515C54.9723 131.515 54.4853 135.145 55.8349 135.145H60.8159C60.8159 130.138 57.1567 127.919 56.3845 127.481C54.3323 126.327 51.7513 125.75 48.6487 125.75C45.2329 125.75 42.4572 126.57 40.3215 128.205C38.2554 129.985 37.2258 132.224 37.2258 134.929C37.2258 141.056 43.1668 142.433 46.9443 143.358C51.7374 144.492 54.3114 145.076 54.3114 146.877C54.3114 147.733 53.8871 148.407 53.0314 148.908C52.1061 149.409 51 149.652 49.72 149.652C47.9391 149.652 46.5199 149.297 45.4486 148.588C44.4538 147.879 43.9181 146.808 43.8485 145.389H36.5858C36.5858 145.389 36.1266 149.756 39.6815 152.858C41.6224 154.555 44.6973 155.313 48.753 155.313C53.0244 155.313 56.2245 154.527 58.3602 152.962C60.635 151.251 61.7759 148.838 61.7759 145.702C61.7759 145.681 61.7759 145.66 61.7759 145.639C61.762 142.844 59.9533 140.368 57.3654 139.29Z" fill="white"/>
<path fill-rule="evenodd" clip-rule="evenodd" d="M81.2831 130.075V144.533C81.2831 146.244 80.7892 147.489 79.7875 148.268C78.7926 149.054 77.617 149.443 76.1561 149.443C74.6952 149.443 73.5195 149.054 72.5247 148.268C71.5299 147.489 71.029 146.244 71.029 144.533V126.389H63.5645V144.582C63.5645 149.492 66.5767 155.313 76.163 155.313C85.7493 155.313 88.7616 149.492 88.7616 144.582V126.389H84.9771C82.9319 126.389 81.2831 128.038 81.2831 130.075Z" fill="white"/>
<path fill-rule="evenodd" clip-rule="evenodd" d="M95.1969 129.484C93.8403 130.701 90.6055 133.719 90.6055 141.014V154.784H98.0769V140.854C98.0769 133.413 106.62 133.969 106.62 133.969V126.389C106.62 126.389 99.03 126.048 95.1969 129.484Z" fill="white"/>
<path fill-rule="evenodd" clip-rule="evenodd" d="M178.821 146.564C178.396 146.919 176.553 149.123 173.694 149.123C171.843 149.123 170.452 148.553 169.527 147.42C168.247 146.07 167.607 143.755 167.607 140.479C167.607 133.546 171.217 132.182 173.026 131.939C176.275 131.508 178.083 133.636 178.389 135.034H185.861C185.861 133.107 183.864 125.75 173.158 125.75C169.102 125.75 165.93 127.071 163.655 129.7C161.45 132.259 160.344 135.82 160.344 140.375C160.344 145.145 161.478 148.803 163.759 151.37C166.034 154.005 169.207 155.32 173.262 155.32C176.608 155.32 179.384 154.499 181.589 152.865C183.795 151.3 185.29 149.026 186.077 146.036H180.741C179.885 146.029 179.245 146.209 178.821 146.564Z" fill="white"/>
<path fill-rule="evenodd" clip-rule="evenodd" d="M213.001 140.583C213.001 135.889 211.86 132.224 209.585 129.588C207.234 127.029 203.929 125.742 199.658 125.742C195.602 125.742 192.437 127.064 190.155 129.692C187.95 132.252 186.844 135.812 186.844 140.367C186.844 145.138 187.978 148.796 190.259 151.362C192.534 153.998 195.707 155.312 199.762 155.312C203.108 155.312 205.884 154.492 208.089 152.857C210.295 151.293 211.79 149.019 212.576 146.028H207.241C206.385 146.028 205.731 146.209 205.265 146.564C204.799 146.918 203.004 149.123 200.194 149.123C198.343 149.123 196.952 148.553 196.027 147.419C195.032 146.348 194.496 144.714 194.427 142.509H212.896C212.896 142.509 213.001 140.868 213.001 140.583ZM194.427 137.704C194.496 135.854 195.032 134.435 196.027 133.434C197.021 132.439 198.301 131.939 199.874 131.939C201.578 131.939 202.9 132.439 203.825 133.434C204.681 134.359 205.175 135.784 205.321 137.704H194.427Z" fill="white"/>
<path fill-rule="evenodd" clip-rule="evenodd" d="M22.6513 125.75C13.065 125.75 10.0527 131.682 10.0527 136.585V154.777H17.5242V136.633C17.5242 134.923 18.0181 133.678 19.0199 132.899C20.0147 132.113 21.1904 131.723 22.6513 131.723C24.1122 131.723 25.2879 132.113 26.2827 132.899C27.2775 133.678 27.7784 134.923 27.7784 136.633V151.091C27.7784 153.129 29.4271 154.777 31.4654 154.777H35.2499V136.585C35.2499 131.682 32.2376 125.75 22.6513 125.75Z" fill="white"/>
<path fill-rule="evenodd" clip-rule="evenodd" d="M146.349 125.75C136.762 125.75 133.75 131.682 133.75 136.585V154.777H141.221V136.633C141.221 134.923 141.715 133.678 142.717 132.899C143.712 132.113 144.888 131.723 146.349 131.723C147.809 131.723 148.985 132.113 149.98 132.899C150.975 133.678 151.476 134.923 151.476 136.633V151.091C151.476 153.129 153.124 154.777 155.163 154.777H158.947V136.585C158.947 131.682 155.942 125.75 146.349 125.75Z" fill="white"/>
<path fill-rule="evenodd" clip-rule="evenodd" d="M128.441 127.753C126.368 126.438 123.251 125.75 119.091 125.75C115.376 125.75 112.531 126.584 110.506 128.135C108.746 129.554 107.585 131.431 107.334 134.032H114.82C115.077 130.646 124.357 130.639 124.309 134.025C124.288 135.388 122.674 136.313 119.418 136.745C107.898 138.052 106.708 142.134 106.611 146.536C106.541 149.673 107.585 151.926 109.602 153.317C111.64 154.645 113.978 155.313 116.649 155.313C119.808 155.313 121.985 154.416 124.608 152.74C125.276 154.437 126.583 154.812 127.599 154.812H131.655V133.58C131.655 131.084 130.577 129.129 128.441 127.753ZM124.427 143.4C124.427 145.354 123.849 146.898 122.625 147.997C121.463 149.13 119.821 149.673 117.762 149.673C116.482 149.673 115.522 149.409 114.847 148.824C114.2 148.219 113.86 147.406 113.86 146.314C113.86 145.577 114.075 143.365 117.533 142.67L120.079 142.134C121.964 141.738 123.376 141.286 124.434 140.82V143.4H124.427Z" fill="white"/>
<defs>
<radialGradient id="paint0_radial" cx="0" cy="0" r="1" gradientUnits="userSpaceOnUse" gradientTransform="translate(157.952 12.7531) scale(18.8214 18.8152)">
<stop stop-color="#F2E3C5"/>
<stop offset="0.0999" stop-color="#F0DFBC"/>
<stop offset="0.2629" stop-color="#E8D3A5"/>
<stop offset="0.4673" stop-color="#DCC081"/>
<stop offset="0.6" stop-color="#D3B369"/>
<stop offset="1" stop-color="#BB8A0B"/>
</radialGradient>
</defs>
</svg>
